<svg xmlns="http://www.w3.org/2000/svg" viewBox="0 0 502.001 502.001" style="enable-background:new 0 0 502.001 502.001" xml:space="preserve"><path d="m489.809 32.002-19.797-19.798C462.142 4.333 451.679 0 440.551 0s-21.59 4.333-29.459 12.202l-14.99 14.99-1.959-1.959c-3.905-3.904-10.235-3.905-14.143 0L62.146 343.088l.011.004a9.99 9.99 0 0 0-2.169 3.215l-29.102 69.719L.782 488.148a10 10 0 0 0 13.081 13.081l72.123-30.105.005-.003 69.712-29.099a9.971 9.971 0 0 0 3.215-2.168l.004.011L476.778 122.01a10.001 10.001 0 0 0 0-14.142l-1.959-1.959 14.99-14.989c16.243-16.244 16.243-42.674 0-58.918zM28.611 473.399 43.596 437.5l20.915 20.914-35.9 14.985zm55.855-23.314-32.541-32.54 20.772-49.763 61.532 61.531-49.763 20.772zm67.386-31.435L83.36 350.159l271.839-271.84 68.492 68.492L151.852 418.65zm285.982-285.981-68.492-68.492 17.73-17.73 68.492 68.492-17.73 17.73zm37.832-55.893L460.822 91.62l-50.431-50.432 14.844-14.844c4.091-4.091 9.53-6.344 15.316-6.344s11.227 2.253 15.317 6.344l19.797 19.797c8.446 8.447 8.446 22.189.001 30.635z"/><path d="M255.258 199.397 110.627 344.029c-3.905 3.905-3.905 10.237 0 14.143 1.953 1.953 4.512 2.929 7.071 2.929s5.118-.977 7.071-2.929l144.632-144.633c3.905-3.905 3.905-10.237 0-14.142-3.906-3.905-10.236-3.905-14.143 0zM300.255 154.4l-18.213 18.213c-3.905 3.905-3.905 10.237 0 14.143 1.953 1.952 4.512 2.929 7.071 2.929s5.118-.977 7.071-2.929l18.213-18.213c3.906-3.905 3.906-10.237.001-14.143-3.906-3.904-10.236-3.904-14.143 0z"/></svg>
