<svg xmlns="http://www.w3.org/2000/svg" viewBox="0 0 234.766 234.766" style="enable-background:new 0 0 234.766 234.766" xml:space="preserve"><path style="fill:#010002" d="M213.793 198.83H20.968C9.404 198.83 0 189.426 0 177.868V56.898c0-11.563 9.404-20.962 20.968-20.962h192.831c11.563 0 20.968 9.404 20.968 20.962v120.97c-.006 11.564-9.41 20.962-20.974 20.962zM21.555 177.27h191.651V57.496H21.555V177.27z"/><path style="fill:#010002" d="M142.172 108.156 110.696 85.23a10.425 10.425 0 0 0-16.557 8.425v45.851a10.42 10.42 0 0 0 16.557 8.42L142.172 125c2.692-1.969 4.286-5.096 4.286-8.425s-1.594-6.45-4.286-8.419z"/></svg>
